<?xml version="1.0" encoding="utf-8"?>
<!-- Generator: Adobe Illustrator 26.0.1, SVG Export Plug-In . SVG Version: 6.00 Build 0)  -->
<svg version="1.1" id="all" xmlns="http://www.w3.org/2000/svg" xmlns:xlink="http://www.w3.org/1999/xlink" x="0px" y="0px"
	 viewBox="0 0 818.2 347.4" style="enable-background:new 0 0 818.2 347.4;" xml:space="preserve">
<style type="text/css">
	.st0{fill:none;stroke:#000000;stroke-miterlimit:10;}
	.st1{enable-background:new    ;}
	.st2{font-family:'ProximaNova-Regular';}
	.st3{font-size:11.2px;}
	.st4{font-size:7.8728px;}
	.st5{font-size:7px;}
	.st6{fill:none;}
	.st7{font-size:6px;}
</style>
<rect x="20.5" y="19.2" class="st0" width="203.5" height="311.7"/>
<text transform="matrix(1 0 0 1 48.4231 178.4234)" class="st1"><tspan x="0" y="0" class="st2 st3">Землі лісогосподарського </tspan><tspan x="35.3" y="13.4" class="st2 st3">призначення</tspan></text>
<rect x="224.1" y="19.2" class="st0" width="202.4" height="311.7"/>
<text transform="matrix(1 0 0 1 245.4007 172.8234)" class="st2 st3">Землі житлової та громадської</text>
<text transform="matrix(1 0 0 1 301.4253 184.0234)" class="st2 st3">забудови</text>
<rect x="426.5" y="19.2" class="st0" width="194.5" height="226.4"/>
<text transform="matrix(1 0 0 1 435.8803 124.5544)" class="st2 st3">Землі промисловості, транспорту,</text>
<text transform="matrix(1 0 0 1 442.7982 135.7544)" class="st2 st3">зв’язку, енергетики, оборони та</text>
<text transform="matrix(1 0 0 1 472.0642 146.9544)" class="st2 st3">іншого призначення</text>
<rect x="426.5" y="245.6" class="st0" width="194.5" height="85.3"/>
<text transform="matrix(1 0 0 1 488.0658 291.6095)" class="st2 st3">Не визначено</text>
<rect x="621" y="19.2" class="st0" width="89.4" height="159.5"/>
<text transform="matrix(1 0 0 1 655.2649 85.5598)" class="st2 st4">Землі</text>
<text transform="matrix(1 0 0 1 625.4478 93.4326)" class="st2 st4">природно-заповідного</text>
<text transform="matrix(1 0 0 1 648.7336 101.3054)" class="st2 st4">та іншого</text>
<text transform="matrix(1 0 0 1 629.6995 109.1782)" class="st2 st4">природоохоронного</text>
<text transform="matrix(1 0 0 1 642.3889 117.051)" class="st2 st4">призначення</text>
<rect x="710.4" y="19.2" class="st0" width="84.5" height="159.5"/>
<text transform="matrix(1 0 0 1 743.3633 94.0436)" class="st2 st5">Землі</text>
<text transform="matrix(1 0 0 1 714.3328 101.0436)" class="st2 st5">сільськогосподарського</text>
<text transform="matrix(1 0 0 1 731.9148 108.0436)" class="st2 st5">призначення</text>
<rect x="621" y="178.7" class="st0" width="88" height="152.2"/>
<text transform="matrix(1 0 0 1 628.231 252.5586)" class="st2 st3">Землі водного</text>
<text transform="matrix(1 0 0 1 648.1755 263.7586)" class="st2 st3">фонду</text>
<rect x="709.1" y="178.7" class="st0" width="85.8" height="113.5"/>
<text transform="matrix(1 0 0 1 737.1395 227.5902)" class="st2 st3">Землі</text>
<text transform="matrix(1 0 0 1 715.1552 238.7902)" class="st2 st3">рекреаційного</text>
<text transform="matrix(1 0 0 1 718.822 249.9902)" class="st2 st3">призначення</text>
<rect x="709.1" y="292.2" class="st0" width="67.7" height="38.7"/>
<rect x="776.8" y="292.2" class="st0" width="18.1" height="38.7"/>
<rect x="707.4" y="301" class="st6" width="69.7" height="24.7"/>
<text transform="matrix(1 0 0 1 734.5123 304.9807)"><tspan x="0" y="0" class="st2 st7">Землі </tspan><tspan x="-21.9" y="7.2" class="st2 st7">історико-культурного </tspan><tspan x="-10.4" y="14.4" class="st2 st7">призначення</tspan></text>
</svg>
