<?xml version="1.0" encoding="utf-8"?>
<!-- Generator: Adobe Illustrator 26.0.1, SVG Export Plug-In . SVG Version: 6.00 Build 0)  -->
<svg version="1.1" id="commen" xmlns="http://www.w3.org/2000/svg" xmlns:xlink="http://www.w3.org/1999/xlink" x="0px" y="0px"
	 viewBox="0 0 818.2 347.4" style="enable-background:new 0 0 818.2 347.4;" xml:space="preserve">
<style type="text/css">
	.st0{fill:none;stroke:#000000;stroke-miterlimit:10;}
	.st1{font-family:'ProximaNova-Regular';}
	.st2{font-size:11.2px;}
	.st3{font-size:8.3492px;}
	.st4{font-size:7.4236px;}
</style>
<rect x="20.5" y="19.2" class="st0" width="262.9" height="311.7"/>
<text transform="matrix(1 0 0 1 46.6619 178.4234)" class="st1 st2">Землі житлової та громадської забудови</text>
<rect x="283.4" y="19.2" class="st0" width="134.1" height="311.7"/>
<text transform="matrix(1 0 0 1 294.3623 161.6234)" class="st1 st2">Землі промисловості,</text>
<text transform="matrix(1 0 0 1 299.9541 172.8234)" class="st1 st2">транспорту, зв’язку,</text>
<text transform="matrix(1 0 0 1 289.7276 184.0234)" class="st1 st2">енергетики, оборони та</text>
<text transform="matrix(1 0 0 1 298.7428 195.2234)" class="st1 st2">іншого призначення</text>
<rect x="417.5" y="186.9" class="st0" width="209.5" height="144"/>
<text transform="matrix(1 0 0 1 486.5413 262.2593)" class="st1 st2">Не визначено</text>
<rect x="627" y="195.1" class="st0" width="85.1" height="135.9"/>
<text transform="matrix(1 0 0 1 658.4966 257.141)" class="st1 st3">Землі</text>
<text transform="matrix(1 0 0 1 632.1343 265.4902)" class="st1 st3">лісогосподарського</text>
<text transform="matrix(1 0 0 1 644.8416 273.8394)" class="st1 st3">призначення</text>
<rect x="417.5" y="19.2" class="st0" width="209.5" height="167.7"/>
<text transform="matrix(1 0 0 1 422.8523 100.8042)" class="st1 st2">Землі природно-заповідного та іншого</text>
<text transform="matrix(1 0 0 1 436.289 112.0042)" class="st1 st2">природоохоронного призначення</text>
<rect x="627" y="19.2" class="st0" width="167.9" height="106.8"/>
<text transform="matrix(1 0 0 1 633.2397 70.3584)" class="st1 st2">Землі сільськогосподарського</text>
<text transform="matrix(1 0 0 1 677.7854 81.5584)" class="st1 st2">призначення</text>
<rect x="712.1" y="272.9" class="st0" width="62.6" height="58"/>
<text transform="matrix(1 0 0 1 728.5975 294.0571)" class="st1 st2">Землі</text>
<text transform="matrix(1 0 0 1 723.0439 305.2571)" class="st1 st2">водного</text>
<text transform="matrix(1 0 0 1 726.5741 316.4571)" class="st1 st2">фонду</text>
<rect x="627" y="126" class="st0" width="167.9" height="69.1"/>
<text transform="matrix(1 0 0 1 657.7041 158.2804)" class="st1 st2">Землі рекреаційного</text>
<text transform="matrix(1 0 0 1 677.7854 169.4804)" class="st1 st2">призначення</text>
<rect x="712.1" y="195.1" class="st0" width="82.8" height="77.8"/>
<text transform="matrix(1 0 0 1 743.6772 228.7676)" class="st1 st4">Землі</text>
<text transform="matrix(1 0 0 1 717.6985 236.1912)" class="st1 st4">історико-культурного</text>
<text transform="matrix(1 0 0 1 731.5361 243.6148)" class="st1 st4">призначення</text>
<rect x="774.8" y="272.9" class="st0" width="20.1" height="58"/>
<g>
	<path d="M782.5,329.1l-0.3-0.3c0.3-0.2,0.5-0.7,0.5-1.2c0-0.6-0.3-1-0.8-1c-0.5,0-0.7,0.4-0.7,1.1v0.8h-0.5v-0.8c0-0.5-0.2-1-0.7-1
		c-0.5,0-0.7,0.4-0.7,1c0,0.5,0.2,0.9,0.5,1.2l-0.3,0.3c-0.4-0.3-0.6-0.8-0.6-1.5c0-0.8,0.4-1.5,1.1-1.5c0.6,0,0.9,0.5,0.9,0.9
		c0-0.4,0.3-0.9,1-0.9c0.7,0,1.2,0.6,1.2,1.5C783.2,328.3,782.9,328.9,782.5,329.1z"/>
	<path d="M781.6,325.4c-0.9,0-1.5-0.6-1.5-1.5c0-0.9,0.7-1.4,1.6-1.4h0.1v2.4c0.6,0,1-0.4,1-1.1c0-0.3-0.1-0.7-0.4-0.9l0.3-0.2
		c0.3,0.3,0.5,0.7,0.5,1.2C783.2,324.8,782.5,325.4,781.6,325.4z M780.4,324c0,0.6,0.5,0.9,1,1V323C781,323,780.4,323.3,780.4,324z"
		/>
	<path d="M783.1,319.3h-2.3l2.3,1v0.2l-2.3,1h2.3v0.5h-3v-0.6l2.2-0.9l-2.2-0.9v-0.6h3V319.3z"/>
	<path d="M782.8,318.2c0-0.3-0.3-0.4-1.2-0.6l-1.5-0.2v-2.1h3v0.5h-2.6v1.2l1.1,0.1c1.1,0.1,1.5,0.5,1.5,1H782.8z"/>
	<path d="M779.4,314.6c-0.2,0-0.3-0.1-0.3-0.3c0-0.2,0.1-0.3,0.3-0.3s0.3,0.1,0.3,0.3C779.7,314.4,779.6,314.6,779.4,314.6z
		 M783.1,314.5h-3V314h3V314.5z"/>
	<path d="M781.6,311.7c-0.9,0-1.5-0.6-1.5-1.5c0-0.9,0.7-1.5,1.5-1.5c0.9,0,1.6,0.6,1.6,1.5C783.2,311.2,782.5,311.7,781.6,311.7z
		 M781.6,309.3c-0.6,0-1.1,0.3-1.1,1c0,0.6,0.5,1,1.1,1c0.6,0,1.1-0.4,1.1-1C782.8,309.6,782.2,309.3,781.6,309.3z"/>
	<path d="M782.7,308.3l-0.3-0.2c0.3-0.3,0.4-0.7,0.4-1.1c0-0.5-0.2-0.9-0.5-0.9c-0.4,0-0.5,0.4-0.5,0.9v0.7h-0.4v-0.7
		c0-0.5-0.2-0.9-0.5-0.9c-0.3,0-0.5,0.4-0.5,0.9c0,0.4,0.1,0.7,0.4,1l-0.3,0.2c-0.3-0.3-0.5-0.7-0.5-1.2c0-0.8,0.3-1.4,0.8-1.4
		c0.4,0,0.7,0.4,0.7,0.8c0-0.3,0.2-0.9,0.7-0.9c0.5,0,0.9,0.5,0.9,1.4C783.2,307.6,783,308,782.7,308.3z"/>
	<path d="M782.7,305.2c0-0.3-0.2-0.4-1.1-0.6l-1.5-0.2v-2.1h2.6v-0.3h1.2v0.5h-0.8v2.2h0.8v0.5H782.7z M781.6,304.2
		c0.6,0.1,0.9,0.2,1,0.4v-1.8h-2.1v1.2L781.6,304.2z"/>
	<path d="M781.6,301.6c-0.9,0-1.5-0.6-1.5-1.5c0-0.9,0.7-1.5,1.5-1.5c0.9,0,1.6,0.6,1.6,1.5C783.2,301.1,782.5,301.6,781.6,301.6z
		 M781.6,299.2c-0.6,0-1.1,0.3-1.1,1c0,0.6,0.5,1,1.1,1c0.6,0,1.1-0.4,1.1-1C782.8,299.5,782.2,299.2,781.6,299.2z"/>
	<path d="M782.6,297.5h1.6v0.5h-4.1v-0.5h0.4c-0.3-0.2-0.5-0.6-0.5-1c0-0.8,0.6-1.3,1.5-1.3c1,0,1.6,0.5,1.6,1.3
		C783.2,296.9,783,297.3,782.6,297.5z M781.6,295.7c-0.7,0-1.1,0.4-1.1,0.9c0,0.4,0.2,0.7,0.5,0.9h1.3c0.3-0.2,0.5-0.5,0.5-0.9
		C782.8,296,782.3,295.7,781.6,295.7z"/>
	<path d="M781.6,294.6c-0.9,0-1.5-0.6-1.5-1.5c0-0.9,0.7-1.5,1.5-1.5c0.9,0,1.6,0.6,1.6,1.5C783.2,294.1,782.5,294.6,781.6,294.6z
		 M781.6,292.2c-0.6,0-1.1,0.3-1.1,1c0,0.6,0.5,1,1.1,1c0.6,0,1.1-0.4,1.1-1C782.8,292.5,782.2,292.2,781.6,292.2z"/>
	<path d="M783.1,291h-3v-1.6c0-0.5,0.3-0.8,0.8-0.8c0.4,0,0.6,0.2,0.7,0.5c0.1-0.3,0.4-0.5,0.7-0.5c0.5,0,0.8,0.3,0.8,0.9V291z
		 M781,289c-0.3,0-0.4,0.2-0.4,0.4v1.1h0.8v-1.1C781.4,289.1,781.2,289,781,289z M782.2,288.9c-0.2,0-0.5,0.2-0.5,0.5v1.1h0.9v-1.1
		C782.7,289.1,782.5,288.9,782.2,288.9z"/>
	<path d="M780.1,287.2h0.8c0.6,0,0.7-0.3,0.7-0.8c0-0.3-0.1-0.6-0.2-0.8h-1.4v-0.5h3v0.5h-1.2c0.1,0.2,0.2,0.6,0.2,0.9
		c0,0.8-0.3,1.1-1,1.1h-1V287.2z"/>
	<path d="M781.6,284.4c-0.9,0-1.5-0.6-1.5-1.5c0-0.9,0.7-1.5,1.5-1.5c0.9,0,1.6,0.6,1.6,1.5C783.2,283.9,782.5,284.4,781.6,284.4z
		 M781.6,282c-0.6,0-1.1,0.3-1.1,1c0,0.6,0.5,1,1.1,1c0.6,0,1.1-0.4,1.1-1C782.8,282.3,782.2,282,781.6,282z"/>
	<path d="M780.5,278.7v1.6h2.6v0.5h-3v-2.1H780.5z"/>
	<path d="M781.6,278.3c-0.9,0-1.5-0.6-1.5-1.5c0-0.9,0.7-1.5,1.5-1.5c0.9,0,1.6,0.6,1.6,1.5C783.2,277.7,782.5,278.3,781.6,278.3z
		 M781.6,275.8c-0.6,0-1.1,0.3-1.1,1c0,0.6,0.5,1,1.1,1c0.6,0,1.1-0.4,1.1-1C782.8,276.2,782.2,275.8,781.6,275.8z"/>
	<path d="M789.2,326.8h-2.6v1.5h2.6v0.5h-3v-2.5h3V326.8z"/>
	<path d="M788.8,325h1.6v0.5h-4.1V325h0.4c-0.3-0.2-0.5-0.6-0.5-1c0-0.8,0.6-1.3,1.5-1.3c1,0,1.6,0.5,1.6,1.3
		C789.3,324.4,789.1,324.8,788.8,325z M787.7,323.2c-0.7,0-1.1,0.4-1.1,0.9c0,0.4,0.2,0.7,0.5,0.9h1.3c0.3-0.2,0.5-0.5,0.5-0.9
		C788.9,323.5,788.4,323.2,787.7,323.2z"/>
	<path d="M789.2,322h-3v-0.5h2.3l-2.3-1.5v-0.5h3v0.5h-2.3l2.3,1.6V322z"/>
	<path d="M788.8,318.9l-0.3-0.2c0.3-0.3,0.4-0.7,0.4-1.1c0-0.5-0.2-0.9-0.5-0.9c-0.4,0-0.5,0.4-0.5,0.9v0.7h-0.4v-0.7
		c0-0.5-0.2-0.9-0.5-0.9c-0.3,0-0.5,0.4-0.5,0.9c0,0.4,0.1,0.7,0.4,1l-0.3,0.2c-0.3-0.3-0.5-0.7-0.5-1.2c0-0.8,0.3-1.4,0.8-1.4
		c0.4,0,0.7,0.4,0.7,0.8c0-0.3,0.2-0.9,0.7-0.9c0.5,0,0.9,0.5,0.9,1.4C789.3,318.1,789.1,318.6,788.8,318.9z"/>
	<path d="M789.2,315.4h-3V315h1.2v-1.5h-1.2V313h3v0.5h-1.3v1.5h1.3V315.4z"/>
	<path d="M789.2,310.2h-0.3c0.3,0.2,0.4,0.6,0.4,1c0,0.5-0.3,1-1,1c-0.7,0-1-0.5-1-1c0-0.4,0.1-0.7,0.4-1h-0.5
		c-0.4,0-0.6,0.3-0.6,0.7c0,0.4,0.1,0.6,0.4,0.9l-0.3,0.2c-0.3-0.3-0.5-0.7-0.5-1.2c0-0.6,0.3-1.1,1-1.1h2V310.2z M788.6,310.2H788
		c-0.2,0.2-0.4,0.5-0.4,0.8c0,0.4,0.3,0.7,0.6,0.7c0.4,0,0.6-0.3,0.6-0.7C789,310.7,788.8,310.4,788.6,310.2z"/>
	<path d="M786.3,308.4h0.8c0.6,0,0.7-0.3,0.7-0.8c0-0.3-0.1-0.6-0.2-0.8h-1.4v-0.5h3v0.5H788c0.1,0.2,0.2,0.6,0.2,0.9
		c0,0.8-0.3,1.1-1,1.1h-1V308.4z"/>
	<path d="M787.7,305.7c-0.9,0-1.5-0.6-1.5-1.5c0-0.9,0.7-1.4,1.6-1.4h0.1v2.4c0.6,0,1-0.4,1-1.1c0-0.3-0.1-0.7-0.4-0.9l0.3-0.2
		c0.3,0.3,0.5,0.7,0.5,1.2C789.3,305.1,788.7,305.7,787.7,305.7z M786.6,304.2c0,0.6,0.5,0.9,1,1v-1.9
		C787.1,303.3,786.6,303.6,786.6,304.2z"/>
	<path d="M789.2,302.1h-3v-0.5h1.2v-1.5h-1.2v-0.5h3v0.5h-1.3v1.5h1.3V302.1z"/>
	<path d="M789.2,298.7h-3v-0.5h1.2v-1.5h-1.2v-0.5h3v0.5h-1.3v1.5h1.3V298.7z"/>
	<path d="M789.2,295.4l-1.2-0.8c-0.1,0.4-0.4,0.8-0.9,0.8c-0.5,0-0.9-0.3-0.9-0.9v-1.6h3v0.5h-1.1v0.8l1.1,0.7V295.4z M787.7,293.3
		h-1v1.1c0,0.3,0.2,0.5,0.5,0.5s0.5-0.2,0.5-0.5V293.3z"/>
</g>
</svg>
