<?xml version="1.0" encoding="utf-8"?>
<!-- Generator: Adobe Illustrator 26.0.1, SVG Export Plug-In . SVG Version: 6.00 Build 0)  -->
<svg version="1.1" id="derzh" xmlns="http://www.w3.org/2000/svg" xmlns:xlink="http://www.w3.org/1999/xlink" x="0px" y="0px"
	 viewBox="0 0 818.2 347.4" style="enable-background:new 0 0 818.2 347.4;" xml:space="preserve">
<style type="text/css">
	.st0{fill:none;stroke:#000000;}
	.st1{enable-background:new    ;}
	.st2{font-family:'ProximaNova-Regular';}
	.st3{font-size:11.2px;}
	.st4{font-size:8.8544px;}
	.st5{font-size:8.3492px;}
	.st6{font-size:7.8728px;}
	.st7{fill:none;}
	.st8{font-size:7px;}
	.st9{font-size:6px;}
</style>
<rect x="309.5" y="19.2" class="st0" width="209" height="311.7"/>
<text transform="matrix(1 0 0 1 374.4348 178.4234)" class="st1"><tspan x="0" y="0" class="st2 st3">Землі житлової </tspan><tspan x="-23.6" y="13.4" class="st2 st3">та громадської забудови</tspan></text>
<rect x="20.5" y="19.2" class="st0" width="288.9" height="311.7"/>
<text transform="matrix(1 0 0 1 25.1902 172.8234)" class="st2 st3">Землі промисловості, транспорту, зв’язку, енергетики,</text>
<text transform="matrix(1 0 0 1 82.6777 184.0234)" class="st2 st3">оборони та іншого призначення</text>
<rect x="518.5" y="19.2" class="st0" width="276.4" height="182.5"/>
<text transform="matrix(1 0 0 1 620.9956 113.8172)" class="st2 st3">Не визначено</text>
<rect x="611.1" y="201.7" class="st0" width="86.9" height="129.2"/>
<text transform="matrix(1 0 0 1 641.8357 260.1142)" class="st2 st4">Землі</text>
<text transform="matrix(1 0 0 1 613.8783 268.9686)" class="st2 st4">лісогосподарського</text>
<text transform="matrix(1 0 0 1 627.3545 277.8229)" class="st2 st4">призначення</text>
<rect x="698" y="201.7" class="st0" width="96.9" height="62"/>
<text transform="matrix(1 0 0 1 735.3962 218.4969)" class="st2 st5">Землі</text>
<text transform="matrix(1 0 0 1 703.775 226.846)" class="st2 st5">природно-заповідного</text>
<text transform="matrix(1 0 0 1 728.4698 235.1952)" class="st2 st5">та іншого</text>
<text transform="matrix(1 0 0 1 708.2839 243.5444)" class="st2 st5">природоохоронного</text>
<text transform="matrix(1 0 0 1 721.7412 251.8935)" class="st2 st5">призначення</text>
<rect x="518.5" y="201.7" class="st0" width="92.6" height="129.2"/>
<text transform="matrix(1 0 0 1 552.3691 260.8013)" class="st2 st6">Землі</text>
<text transform="matrix(1 0 0 1 519.719 268.6741)" class="st2 st6">сільськогосподарського</text>
<text transform="matrix(1 0 0 1 539.4932 276.5469)" class="st2 st6">призначення</text>
<rect x="777.8" y="307.6" class="st0" width="17.1" height="23.4"/>
<rect x="698" y="263.7" class="st0" width="51.6" height="67.2"/>
<rect x="749.7" y="263.7" class="st0" width="45.3" height="43.9"/>
<rect x="749.7" y="307.6" class="st0" width="28.1" height="23.4"/>
<rect x="691.4" y="284.6" class="st7" width="64.9" height="30.6"/>
<text transform="matrix(1 0 0 1 714.8246 289.3069)"><tspan x="0" y="0" class="st2 st8">Землі </tspan><tspan x="-14.7" y="7" class="st2 st8">рекреаційного </tspan><tspan x="-12.1" y="14" class="st2 st8">призначення</tspan></text>
<rect x="739.6" y="276.2" class="st7" width="64.9" height="30.6"/>
<text transform="matrix(1 0 0 1 750.9774 280.2144)"><tspan x="0" y="0" class="st2 st9">Землі історико-</tspan><tspan x="4.1" y="7" class="st2 st9">культурного </tspan><tspan x="3" y="14" class="st2 st9">призначення</tspan></text>
</svg>
