<?xml version="1.0" encoding="utf-8"?>
<!-- Generator: Adobe Illustrator 26.0.1, SVG Export Plug-In . SVG Version: 6.00 Build 0)  -->
<svg version="1.1" id="non" xmlns="http://www.w3.org/2000/svg" xmlns:xlink="http://www.w3.org/1999/xlink" x="0px" y="0px"
	 viewBox="0 0 818.2 347.4" style="enable-background:new 0 0 818.2 347.4;" xml:space="preserve">
<style type="text/css">
	.st0{fill:none;stroke:#000000;stroke-miterlimit:10;}
	.st1{font-family:'ProximaNova-Regular';}
	.st2{font-size:11.2px;}
	.st3{fill:none;}
	.st4{font-size:9px;}
</style>
<rect x="541.2" y="19.2" class="st0" width="253.7" height="148.9"/>
<text transform="matrix(1 0 0 1 562.7622 97.0168)" class="st1 st2">Землі житлової та громадської забудови</text>
<rect x="408.6" y="19.2" class="st0" width="132.6" height="311.7"/>
<text transform="matrix(1 0 0 1 418.8437 161.6234)" class="st1 st2">Землі промисловості,</text>
<text transform="matrix(1 0 0 1 424.4355 172.8234)" class="st1 st2">транспорту, зв’язку,</text>
<text transform="matrix(1 0 0 1 414.2089 184.0234)" class="st1 st2">енергетики, оборони та</text>
<text transform="matrix(1 0 0 1 423.2242 195.2234)" class="st1 st2">іншого призначення</text>
<rect x="786.7" y="318" class="st0" width="8.2" height="12.9"/>
<rect x="20.5" y="19.2" class="st0" width="388.1" height="311.7"/>
<text transform="matrix(1 0 0 1 113.2145 178.4234)" class="st1 st2">Землі лісогосподарського призначення</text>
<rect x="695.1" y="273.1" class="st0" width="77.3" height="57.8"/>
<rect x="772.4" y="301.5" class="st0" width="22.5" height="16.5"/>
<rect x="541.2" y="168.1" class="st0" width="153.9" height="162.8"/>
<text transform="matrix(1 0 0 1 562.9163 252.8719)" class="st1 st2">Землі водного фонду</text>
<rect x="695.1" y="168.1" class="st0" width="99.8" height="105"/>
<text transform="matrix(1 0 0 1 730.1626 212.7569)" class="st1 st2">Землі</text>
<text transform="matrix(1 0 0 1 708.1782 223.9569)" class="st1 st2">рекреаційного</text>
<text transform="matrix(1 0 0 1 711.845 235.1569)" class="st1 st2">призначення</text>
<rect x="772.4" y="273.1" class="st0" width="22.5" height="28.4"/>
<rect x="772.4" y="318" class="st0" width="14.3" height="12.9"/>
<rect x="699.8" y="279.3" class="st3" width="68.9" height="48.8"/>
<text transform="matrix(1 0 0 1 699.921 285.28)"><tspan x="0" y="0" class="st1 st4">Землі природно-</tspan><tspan x="3.6" y="8" class="st1 st4">заповідного та </tspan><tspan x="20.2" y="16" class="st1 st4">іншого </tspan><tspan x="0.2" y="24" class="st1 st4">природо-охорон</tspan><tspan x="24.7" y="32" class="st1 st4">ного </tspan><tspan x="7.2" y="40" class="st1 st4">призначення</tspan></text>
</svg>
