<?xml version="1.0" encoding="utf-8"?>
<!-- Generator: Adobe Illustrator 26.0.1, SVG Export Plug-In . SVG Version: 6.00 Build 0)  -->
<svg version="1.1" id="privat" xmlns="http://www.w3.org/2000/svg" xmlns:xlink="http://www.w3.org/1999/xlink" x="0px" y="0px"
	 viewBox="0 0 818.2 347.4" style="enable-background:new 0 0 818.2 347.4;" xml:space="preserve">
<style type="text/css">
	.st0{fill:none;stroke:#000000;stroke-miterlimit:10;}
	.st1{font-family:'ProximaNova-Regular';}
	.st2{font-size:11.2px;}
	.st3{font-size:9.3902px;}
	.st4{font-size:8.8544px;}
	.st5{opacity:0;}
</style>
<rect x="20.5" y="19.2" class="st0" width="434.7" height="311.7"/>
<text transform="matrix(1 0 0 1 132.5906 178.4234)" class="st1 st2">Землі житлової та громадської забудови</text>
<rect x="697.9" y="166.8" class="st0" width="97" height="67.1"/>
<text transform="matrix(1 0 0 1 733.9609 179.74)" class="st1 st3">Землі</text>
<text transform="matrix(1 0 0 1 713.1541 189.1301)" class="st1 st3">промисловості,</text>
<text transform="matrix(1 0 0 1 704.0803 198.5203)" class="st1 st3">транспорту, зв’язку,</text>
<text transform="matrix(1 0 0 1 701.5195 207.9105)" class="st1 st3">енергетики, оборони</text>
<text transform="matrix(1 0 0 1 726.1709 217.3006)" class="st1 st3">та іншого</text>
<text transform="matrix(1 0 0 1 718.6033 226.6908)" class="st1 st3">призначення</text>
<rect x="697.9" y="19.2" class="st0" width="97" height="147.6"/>
<text transform="matrix(1 0 0 1 710.7102 96.3813)" class="st1 st2">Не визначено</text>
<rect x="455.3" y="19.2" class="st0" width="242.7" height="311.7"/>
<text transform="matrix(1 0 0 1 464.1435 178.4234)" class="st1 st2">Землі сільськогосподарського призначення</text>
<rect x="764.8" y="299.6" class="st0" width="30.1" height="30.1"/>
<rect x="764.8" y="329.3" class="st0" width="30.1" height="1.6"/>
<rect x="697.9" y="234" class="st0" width="66.9" height="97"/>
<text transform="matrix(1 0 0 1 719.6245 276.2424)" class="st1 st4">Землі</text>
<text transform="matrix(1 0 0 1 702.2444 285.0967)" class="st1 st4">рекреаційного</text>
<text transform="matrix(1 0 0 1 705.1432 293.9511)" class="st1 st4">призначення</text>
<rect x="764.8" y="234" class="st0" width="30.1" height="65.6"/>
<g>
	<path d="M773.6,294.9l-0.5-0.4c0.5-0.4,0.8-1.1,0.8-1.8c0-0.9-0.4-1.5-1.1-1.5c-0.7,0-1.1,0.6-1.1,1.6v1.2H771v-1.2
		c0-0.8-0.3-1.5-1-1.5c-0.7,0-1,0.6-1,1.4c0,0.7,0.3,1.3,0.7,1.7l-0.5,0.4c-0.5-0.5-0.9-1.2-0.9-2.2c0-1.2,0.6-2.2,1.6-2.2
		c0.9,0,1.3,0.7,1.4,1.3c0-0.5,0.5-1.4,1.5-1.4c1,0,1.7,0.9,1.7,2.3C774.6,293.7,774.1,294.5,773.6,294.9z"/>
	<path d="M772.3,289.5c-1.3,0-2.3-0.9-2.3-2.1c0-1.3,1-2.1,2.3-2.1h0.2v3.5c0.8-0.1,1.5-0.6,1.5-1.6c0-0.5-0.2-1-0.5-1.3l0.4-0.3
		c0.4,0.4,0.7,1,0.7,1.7C774.6,288.6,773.6,289.5,772.3,289.5z M770.6,287.4c0,0.9,0.8,1.4,1.5,1.4v-2.9
		C771.4,285.9,770.6,286.4,770.6,287.4z"/>
	<path d="M774.5,280.4H771l3.4,1.4v0.3l-3.4,1.4h3.4v0.7h-4.3v-0.9l3.2-1.3l-3.2-1.3v-0.9h4.3V280.4z"/>
	<path d="M774,278.9c0-0.4-0.5-0.7-1.8-0.8l-2.1-0.3v-3h4.3v0.7h-3.8v1.8l1.6,0.2c1.6,0.2,2.2,0.7,2.2,1.5H774z"/>
	<path d="M769,273.5c-0.3,0-0.5-0.2-0.5-0.5c0-0.3,0.2-0.5,0.5-0.5s0.5,0.2,0.5,0.5C769.5,273.3,769.3,273.5,769,273.5z
		 M774.5,273.4h-4.3v-0.7h4.3V273.4z"/>
	<path d="M780.3,294.7c-1.3,0-2.3-0.8-2.3-2.2c0-1.3,1-2.2,2.3-2.2s2.3,0.8,2.3,2.2C782.6,293.9,781.5,294.7,780.3,294.7z
		 M780.3,291.2c-0.9,0-1.7,0.5-1.7,1.4c0,0.9,0.8,1.5,1.7,1.5c0.9,0,1.7-0.5,1.7-1.5C782,291.7,781.2,291.2,780.3,291.2z"/>
	<path d="M781.9,289.8l-0.4-0.3c0.4-0.4,0.6-1,0.6-1.6c0-0.8-0.3-1.3-0.8-1.3c-0.5,0-0.7,0.6-0.7,1.4v1H780v-1
		c0-0.7-0.2-1.3-0.7-1.3c-0.4,0-0.7,0.5-0.7,1.3c0,0.6,0.2,1.1,0.6,1.5l-0.4,0.4c-0.4-0.4-0.7-1-0.7-1.8c0-1.2,0.4-2,1.2-2
		c0.6,0,1,0.7,1.1,1.2c0-0.5,0.3-1.3,1.1-1.3c0.7,0,1.3,0.7,1.3,2C782.6,288.7,782.3,289.3,781.9,289.8z"/>
	<path d="M781.9,285.2c-0.1-0.4-0.4-0.7-1.6-0.8l-2.1-0.3v-3h3.8v-0.5h1.7v0.7h-1.1v3.3h1.1v0.7H781.9z M780.3,283.7
		c0.8,0.1,1.3,0.3,1.5,0.6v-2.6h-3.2v1.8L780.3,283.7z"/>
	<path d="M780.3,279.9c-1.3,0-2.3-0.8-2.3-2.2c0-1.3,1-2.2,2.3-2.2s2.3,0.8,2.3,2.2C782.6,279.1,781.5,279.9,780.3,279.9z
		 M780.3,276.3c-0.9,0-1.7,0.5-1.7,1.4c0,0.9,0.8,1.5,1.7,1.5c0.9,0,1.7-0.5,1.7-1.5C782,276.8,781.2,276.3,780.3,276.3z"/>
	<path d="M781.8,273.9h2.3v0.7h-6v-0.7h0.6c-0.4-0.3-0.8-0.9-0.8-1.5c0-1.1,0.9-1.9,2.3-1.9c1.4,0,2.3,0.8,2.3,1.9
		C782.6,273,782.3,273.5,781.8,273.9z M780.3,271.2c-1,0-1.7,0.5-1.7,1.4c0,0.5,0.3,1.1,0.7,1.3h2c0.4-0.2,0.7-0.8,0.7-1.3
		C782,271.7,781.2,271.2,780.3,271.2z"/>
	<path d="M780.3,269.6c-1.3,0-2.3-0.8-2.3-2.2c0-1.3,1-2.2,2.3-2.2s2.3,0.8,2.3,2.2C782.6,268.8,781.5,269.6,780.3,269.6z
		 M780.3,266c-0.9,0-1.7,0.5-1.7,1.4c0,0.9,0.8,1.5,1.7,1.5c0.9,0,1.7-0.5,1.7-1.5C782,266.6,781.2,266,780.3,266z"/>
	<path d="M782.5,264.2h-4.3v-2.4c0-0.8,0.5-1.2,1.1-1.2c0.5,0,0.9,0.3,1,0.7c0.1-0.4,0.6-0.8,1.1-0.8c0.7,0,1.2,0.5,1.2,1.3V264.2z
		 M779.3,261.3c-0.4,0-0.6,0.2-0.6,0.6v1.6h1.2V262C779.9,261.5,779.7,261.3,779.3,261.3z M781.2,261.2c-0.4,0-0.7,0.2-0.7,0.7v1.6
		h1.3v-1.6C781.9,261.5,781.6,261.2,781.2,261.2z"/>
	<path d="M778.1,258.7h1.2c0.8,0,1-0.4,1-1.1c0-0.4-0.1-0.9-0.2-1.2h-2v-0.7h4.3v0.7h-1.8c0.2,0.3,0.3,0.8,0.3,1.3
		c0,1.1-0.4,1.6-1.4,1.6h-1.4V258.7z"/>
	<path d="M780.3,254.6c-1.3,0-2.3-0.8-2.3-2.2c0-1.3,1-2.2,2.3-2.2s2.3,0.8,2.3,2.2C782.6,253.8,781.5,254.6,780.3,254.6z
		 M780.3,251c-0.9,0-1.7,0.5-1.7,1.4c0,0.9,0.8,1.5,1.7,1.5c0.9,0,1.7-0.5,1.7-1.5C782,251.5,781.2,251,780.3,251z"/>
	<path d="M778.7,246.2v2.4h3.8v0.7h-4.3v-3H778.7z"/>
	<path d="M780.3,245.6c-1.3,0-2.3-0.8-2.3-2.2c0-1.3,1-2.2,2.3-2.2s2.3,0.8,2.3,2.2C782.6,244.7,781.5,245.6,780.3,245.6z
		 M780.3,242c-0.9,0-1.7,0.5-1.7,1.4c0,0.9,0.8,1.5,1.7,1.5c0.9,0,1.7-0.5,1.7-1.5C782,242.5,781.2,242,780.3,242z"/>
	<path d="M790.5,291.6h-3.8v2.3h3.8v0.7h-4.3v-3.6h4.3V291.6z"/>
	<path d="M789.8,288.9h2.3v0.7h-6v-0.7h0.6c-0.4-0.3-0.8-0.9-0.8-1.5c0-1.1,0.9-1.9,2.3-1.9c1.4,0,2.3,0.8,2.3,1.9
		C790.6,288,790.3,288.5,789.8,288.9z M788.3,286.2c-1,0-1.7,0.5-1.7,1.4c0,0.5,0.3,1.1,0.7,1.3h2c0.4-0.2,0.7-0.8,0.7-1.3
		C790,286.7,789.2,286.2,788.3,286.2z"/>
	<path d="M790.5,284.4h-4.3v-0.7h3.3l-3.3-2.3v-0.7h4.3v0.7h-3.4l3.4,2.3V284.4z"/>
	<path d="M789.9,279.8l-0.4-0.3c0.4-0.4,0.6-1,0.6-1.6c0-0.8-0.3-1.3-0.8-1.3c-0.5,0-0.7,0.6-0.7,1.4v1H788v-1
		c0-0.7-0.2-1.3-0.7-1.3c-0.4,0-0.7,0.5-0.7,1.3c0,0.6,0.2,1.1,0.6,1.5l-0.4,0.4c-0.4-0.4-0.7-1-0.7-1.8c0-1.2,0.4-2,1.2-2
		c0.6,0,1,0.7,1.1,1.2c0-0.5,0.3-1.3,1.1-1.3c0.7,0,1.3,0.7,1.3,2C790.6,278.7,790.3,279.4,789.9,279.8z"/>
	<path d="M790.5,274.8h-4.3v-0.7h1.8v-2.3h-1.8v-0.7h4.3v0.7h-1.9v2.3h1.9V274.8z"/>
	<path d="M790.5,267.1H790c0.4,0.4,0.6,0.9,0.6,1.4c0,0.7-0.5,1.5-1.4,1.5c-1,0-1.4-0.8-1.4-1.5c0-0.6,0.2-1.1,0.6-1.4h-0.8
		c-0.6,0-0.9,0.5-0.9,1.1c0,0.5,0.2,0.9,0.6,1.3l-0.5,0.3c-0.5-0.5-0.7-1-0.7-1.7c0-0.9,0.4-1.7,1.5-1.7h3V267.1z M789.5,267.1h-0.8
		c-0.4,0.3-0.5,0.7-0.5,1.2c0,0.6,0.4,1.1,1,1.1c0.5,0,0.9-0.4,0.9-1.1C790.1,267.8,789.9,267.4,789.5,267.1z"/>
	<path d="M786.1,264.5h1.2c0.8,0,1-0.4,1-1.1c0-0.4-0.1-0.9-0.2-1.2h-2v-0.7h4.3v0.7h-1.8c0.2,0.3,0.3,0.8,0.3,1.3
		c0,1.1-0.4,1.6-1.4,1.6h-1.4V264.5z"/>
	<path d="M788.3,260.5c-1.3,0-2.3-0.9-2.3-2.1c0-1.3,1-2.1,2.3-2.1h0.2v3.5c0.8-0.1,1.5-0.6,1.5-1.6c0-0.5-0.2-1-0.5-1.3l0.4-0.3
		c0.4,0.4,0.7,1,0.7,1.7C790.6,259.5,789.6,260.5,788.3,260.5z M786.6,258.3c0,0.9,0.8,1.4,1.5,1.4v-2.9
		C787.4,256.9,786.6,257.3,786.6,258.3z"/>
	<path d="M790.5,255.1h-4.3v-0.7h1.8v-2.3h-1.8v-0.7h4.3v0.7h-1.9v2.3h1.9V255.1z"/>
	<path d="M790.5,250.2h-4.3v-0.7h1.8v-2.3h-1.8v-0.7h4.3v0.7h-1.9v2.3h1.9V250.2z"/>
	<path d="M790.5,245.3l-1.7-1.2c-0.1,0.6-0.6,1.1-1.3,1.1c-0.7,0-1.3-0.5-1.3-1.4v-2.3h4.3v0.7h-1.7v1.2l1.7,1.1V245.3z
		 M788.2,242.3h-1.5v1.5c0,0.5,0.3,0.8,0.7,0.8c0.4,0,0.7-0.3,0.7-0.8V242.3z"/>
</g>
<g>
	<path d="M768.4,310.8l0.3-0.4c0.3,0.3,0.8,0.6,1.3,0.6c0.7,0,1.1-0.3,1.1-0.8c0-0.6-0.5-0.8-1.2-0.8h-0.9v-0.5h0.9
		c0.6,0,1.1-0.2,1.1-0.7c0-0.5-0.5-0.8-1.1-0.8c-0.5,0-0.9,0.2-1.3,0.5l-0.3-0.3c0.3-0.4,0.9-0.7,1.6-0.7c0.9,0,1.6,0.4,1.6,1.2
		c0,0.6-0.5,1-1,1c0.4,0,1,0.4,1,1.1c0,0.7-0.7,1.3-1.7,1.3C769.3,311.5,768.7,311.2,768.4,310.8z"/>
	<path d="M772.4,309.8c0-0.9,0.7-1.7,1.6-1.7c1,0,1.5,0.8,1.5,1.7v0.1H773c0,0.6,0.5,1.1,1.2,1.1c0.4,0,0.7-0.1,1-0.4l0.2,0.3
		c-0.3,0.3-0.8,0.5-1.3,0.5C773.1,311.5,772.4,310.8,772.4,309.8z M774,308.5c-0.7,0-1,0.6-1.1,1.1h2.1
		C775.1,309.1,774.7,308.5,774,308.5z"/>
	<path d="M779.2,311.4v-2.5l-1,2.5h-0.2l-1.1-2.5v2.5h-0.5v-3.2h0.7l1,2.4l1-2.4h0.7v3.2H779.2z"/>
	<path d="M780.3,311.1c0.3,0,0.5-0.3,0.6-1.3l0.2-1.6h2.2v3.2h-0.5v-2.8h-1.3l-0.1,1.2c-0.1,1.2-0.5,1.6-1.1,1.6V311.1z"/>
	<path d="M784.2,307.4c0-0.2,0.2-0.3,0.3-0.3c0.2,0,0.3,0.2,0.3,0.3c0,0.2-0.2,0.3-0.3,0.3C784.4,307.7,784.2,307.6,784.2,307.4z
		 M784.3,311.4v-3.2h0.5v3.2H784.3z"/>
	<path d="M768.7,317.3v-3.2h1.8c0.6,0,0.9,0.3,0.9,0.8c0,0.4-0.2,0.6-0.5,0.7c0.3,0.1,0.6,0.4,0.6,0.8c0,0.5-0.3,0.9-0.9,0.9H768.7z
		 M770.9,315c0-0.3-0.2-0.5-0.5-0.5h-1.2v0.9h1.2C770.7,315.5,770.9,315.3,770.9,315z M771,316.4c0-0.3-0.2-0.5-0.5-0.5h-1.2v1h1.2
		C770.8,316.9,771,316.7,771,316.4z"/>
	<path d="M772.2,315.7c0-0.9,0.6-1.7,1.6-1.7c1,0,1.6,0.8,1.6,1.7c0,0.9-0.6,1.7-1.6,1.7C772.9,317.4,772.2,316.6,772.2,315.7z
		 M774.9,315.7c0-0.7-0.4-1.2-1.1-1.2c-0.7,0-1.1,0.6-1.1,1.2c0,0.7,0.4,1.2,1.1,1.2C774.5,317,774.9,316.4,774.9,315.7z"/>
	<path d="M775.9,316.9c0.3-0.1,0.5-0.3,0.6-1.2l0.2-1.6h2.2v2.8h0.4v1.3h-0.5v-0.8h-2.4v0.8h-0.5V316.9z M777,315.7
		c-0.1,0.6-0.2,0.9-0.5,1.1h1.9v-2.3h-1.3L777,315.7z"/>
	<path d="M780,317.3v-3.2h0.5v1.3h1.7v-1.3h0.5v3.2h-0.5v-1.4h-1.7v1.4H780z"/>
	<path d="M783.4,315.7c0-0.9,0.6-1.7,1.6-1.7c1,0,1.6,0.8,1.6,1.7c0,0.9-0.6,1.7-1.6,1.7C784.1,317.4,783.4,316.6,783.4,315.7z
		 M786.1,315.7c0-0.7-0.4-1.2-1.1-1.2c-0.7,0-1.1,0.6-1.1,1.2c0,0.7,0.4,1.2,1.1,1.2C785.7,317,786.1,316.4,786.1,315.7z"/>
	<path d="M789.7,314.5h-1.7v2.8h-0.5v-3.2h2.2V314.5z"/>
	<path d="M790.1,315.7c0-0.9,0.6-1.7,1.6-1.7c1,0,1.6,0.8,1.6,1.7c0,0.9-0.6,1.7-1.6,1.7C790.8,317.4,790.1,316.6,790.1,315.7z
		 M792.8,315.7c0-0.7-0.4-1.2-1.1-1.2c-0.7,0-1.1,0.6-1.1,1.2c0,0.7,0.4,1.2,1.1,1.2C792.4,317,792.8,316.4,792.8,315.7z"/>
	<path d="M770.7,320.5v-1.7h0.5v1.7c0.2-0.3,0.5-0.6,0.9-0.6c0.7,0,1.2,0.6,1.2,1.7c0,1-0.5,1.7-1.2,1.7c-0.4,0-0.7-0.2-0.9-0.6v1.7
		h-0.5v-1.7c-0.2,0.3-0.5,0.6-0.9,0.6c-0.7,0-1.2-0.6-1.2-1.7c0-1,0.5-1.7,1.2-1.7C770.1,319.9,770.4,320.1,770.7,320.5z
		 M769.1,321.6c0,0.7,0.3,1.2,0.8,1.2c0.3,0,0.6-0.2,0.7-0.5v-1.5c-0.1-0.3-0.4-0.5-0.7-0.5C769.4,320.4,769.1,320.9,769.1,321.6z
		 M772.7,321.6c0-0.7-0.3-1.2-0.8-1.2c-0.3,0-0.6,0.2-0.7,0.5v1.5c0.1,0.3,0.4,0.5,0.7,0.5C772.4,322.9,772.7,322.3,772.7,321.6z"/>
	<path d="M773.9,321.6c0-0.9,0.6-1.7,1.6-1.7c1,0,1.6,0.8,1.6,1.7c0,0.9-0.6,1.7-1.6,1.7C774.5,323.3,773.9,322.6,773.9,321.6z
		 M776.5,321.6c0-0.7-0.4-1.2-1.1-1.2c-0.7,0-1.1,0.6-1.1,1.2c0,0.7,0.4,1.2,1.1,1.2C776.1,322.9,776.5,322.3,776.5,321.6z"/>
	<path d="M777.9,323.2V320h0.5v1.3h1.7V320h0.5v3.2H780v-1.4h-1.7v1.4H777.9z"/>
	<path d="M781.1,322.8c0.3-0.1,0.5-0.3,0.6-1.2l0.2-1.6h2.2v2.8h0.4v1.3h-0.5v-0.8h-2.4v0.8h-0.5V322.8z M782.3,321.7
		c-0.1,0.6-0.2,0.9-0.5,1.1h1.9v-2.3h-1.3L782.3,321.7z"/>
	<path d="M785.2,324c0.1,0,0.2,0.1,0.3,0.1c0.2,0,0.4-0.1,0.5-0.3l0.2-0.5l-1.3-3.2h0.5l1.1,2.6l1.1-2.6h0.5l-1.6,3.9
		c-0.2,0.5-0.5,0.6-0.9,0.7c-0.1,0-0.3,0-0.4,0L785.2,324z"/>
</g>
<g transform="translate(10,10)" class="st5">
</g>
</svg>
